<?xml version="1.0" encoding="utf-8"?>
<!-- Generator: Adobe Illustrator 16.0.0, SVG Export Plug-In . SVG Version: 6.00 Build 0)  -->
<!DOCTYPE svg PUBLIC "-//W3C//DTD SVG 1.1//EN" "http://www.w3.org/Graphics/SVG/1.1/DTD/svg11.dtd">
<svg version="1.1" id="Layer_1" xmlns="http://www.w3.org/2000/svg" xmlns:xlink="http://www.w3.org/1999/xlink" x="0px" y="0px"
	 width="65.851px" height="58.573px" viewBox="0 0 65.851 58.573" enable-background="new 0 0 65.851 58.573" xml:space="preserve">
<g>
	<path fill="#FFFFFF" d="M0,48.87c1.313,1.788,1.962,2.913,2.837,3.82c4.102,4.249,9.441,5.543,15.035,5.688
		c7.699,0.2,15.423,0.347,23.103-0.092c3.85-0.22,7.746-1.463,11.393-2.848c2.701-1.025,4.915-3.128,5.982-6.713
		c-4.893,0-9.415,0-14.256,0c0.887-1.514,1.498-2.547,2.098-3.587c0.584-1.013,1.154-2.032,1.807-3.185
		c0.814,0.674,1.375,1.189,1.986,1.635c3.728,2.707,8.496,2.694,11.977-0.013c3.418-2.659,4.748-7.158,3.328-11.259
		c-1.487-4.292-5.287-6.753-9.961-6.595c-2.595,0.088-5.197-0.04-7.796-0.04c-12.546,0-25.092,0.004-37.638,0.025
		c-0.952,0.002-1.905,0.147-3.003,0.238c-0.697,8.405,1.73,15.741,6.437,22.923C8.807,48.87,4.884,48.87,0,48.87z M22.896,24.496
		c-2.56-3.514-2.41-7.055-1.449-10.707c0.644-2.447,1.41-4.892,1.717-7.388C23.411,4.389,23.052,2.301,22.95,0
		c-1.345,4.558-2.692,8.567-3.681,12.664c-0.659,2.73-1.135,5.59-1.082,8.38C18.23,23.241,19.577,24.962,22.896,24.496z
		 M33.879,24.595c-4.021-5.246,1.912-10.141-0.261-15.309c-0.784,2.459-1.501,4.586-2.136,6.737
		c-0.523,1.772-1.184,3.549-1.359,5.365C29.928,23.408,31.017,24.643,33.879,24.595z"/>
	<path fill-rule="evenodd" clip-rule="evenodd" d="M0,48.87c4.884,0,8.807,0,13.328,0c-4.706-7.183-7.133-14.519-6.437-22.923
		c1.098-0.09,2.051-0.236,3.003-0.238c12.546-0.021,25.092-0.026,37.638-0.025c2.599,0,5.201,0.128,7.796,0.04
		c4.674-0.159,8.474,2.302,9.961,6.595c1.42,4.101,0.09,8.6-3.328,11.259c-3.48,2.707-8.249,2.72-11.977,0.013
		c-0.611-0.445-1.172-0.961-1.986-1.635c-0.652,1.152-1.223,2.172-1.807,3.185c-0.6,1.04-1.211,2.073-2.098,3.587
		c4.841,0,9.363,0,14.256,0c-1.067,3.585-3.281,5.688-5.982,6.713c-3.646,1.385-7.543,2.628-11.393,2.848
		c-7.68,0.438-15.404,0.292-23.103,0.092c-5.593-0.146-10.933-1.439-15.035-5.688C1.962,51.783,1.313,50.658,0,48.87z M61.81,35.537
		c-0.06-3.266-2.669-5.762-5.967-5.703c-3.282,0.059-5.864,2.676-5.812,5.891c0.053,3.205,2.738,5.764,6.009,5.725
		C59.329,41.408,61.869,38.807,61.81,35.537z"/>
	<path fill-rule="evenodd" clip-rule="evenodd" d="M22.896,24.496c-3.319,0.466-4.666-1.255-4.708-3.452
		c-0.054-2.79,0.422-5.649,1.082-8.38C20.258,8.567,21.605,4.558,22.95,0c0.102,2.301,0.461,4.389,0.214,6.401
		c-0.307,2.496-1.073,4.941-1.717,7.388C20.486,17.441,20.336,20.982,22.896,24.496z"/>
	<path fill-rule="evenodd" clip-rule="evenodd" d="M33.879,24.595c-2.862,0.048-3.951-1.187-3.756-3.207
		c0.176-1.816,0.836-3.593,1.359-5.365c0.635-2.151,1.352-4.277,2.136-6.737C35.791,14.454,29.857,19.349,33.879,24.595z"/>
</g>
</svg>
