<?xml version="1.0" encoding="utf-8"?>
<!-- Generator: Adobe Illustrator 16.0.0, SVG Export Plug-In . SVG Version: 6.00 Build 0)  -->
<!DOCTYPE svg PUBLIC "-//W3C//DTD SVG 1.1//EN" "http://www.w3.org/Graphics/SVG/1.1/DTD/svg11.dtd">
<svg version="1.1" id="Layer_1" xmlns="http://www.w3.org/2000/svg" xmlns:xlink="http://www.w3.org/1999/xlink" x="0px" y="0px"
	 width="52.36px" height="58.833px" viewBox="0 0 52.36 58.833" enable-background="new 0 0 52.36 58.833" xml:space="preserve">
<path d="M44.667,0L15.085,36.613C13.932,36.221,12.702,36,11.417,36C5.111,36,0,41.111,0,47.416c0,6.306,5.111,11.417,11.417,11.417
	s11.417-5.111,11.417-11.417c0-0.865-0.104-1.705-0.287-2.516L48.333,8C50.333,1.5,44.667,0,44.667,0z M11.417,52.583
	c-2.854,0-5.167-2.313-5.167-5.167c0-2.853,2.313-5.166,5.167-5.166s5.167,2.313,5.167,5.166
	C16.583,50.269,14.27,52.583,11.417,52.583z M26.208,32.667c-0.944,0-1.708-0.765-1.708-1.708s0.765-1.708,1.708-1.708
	c0.943,0,1.708,0.765,1.708,1.708S27.152,32.667,26.208,32.667z"/>
<path d="M4.031,8l25.771,36.9c-0.183,0.811-0.286,1.65-0.286,2.516c0,6.306,5.11,11.417,11.415,11.417s11.416-5.111,11.416-11.417
	C52.346,41.111,47.235,36,40.93,36c-1.285,0-2.516,0.222-3.668,0.613L7.698,0C7.698,0,2.031,1.5,4.031,8z M35.764,47.416
	c0-2.853,2.312-5.166,5.166-5.166s5.166,2.313,5.166,5.166c0,2.854-2.312,5.167-5.166,5.167S35.764,50.269,35.764,47.416z
	 M24.448,30.958c0-0.943,0.765-1.708,1.708-1.708c0.939,0,1.7,0.765,1.7,1.708s-0.761,1.708-1.7,1.708
	C25.212,32.667,24.448,31.902,24.448,30.958z"/>
</svg>
