<?xml version="1.0" encoding="utf-8"?>
<!-- Generator: Adobe Illustrator 16.0.0, SVG Export Plug-In . SVG Version: 6.00 Build 0)  -->
<!DOCTYPE svg PUBLIC "-//W3C//DTD SVG 1.1//EN" "http://www.w3.org/Graphics/SVG/1.1/DTD/svg11.dtd">
<svg version="1.1" id="Layer_1" xmlns="http://www.w3.org/2000/svg" xmlns:xlink="http://www.w3.org/1999/xlink" x="0px" y="0px"
	 width="50.607px" height="59.023px" viewBox="0 0 50.607 59.023" enable-background="new 0 0 50.607 59.023" xml:space="preserve">
<g>
	<circle fill="#020202" cx="15.27" cy="3.919" r="3.919"/>
	<circle fill="#020202" cx="39.756" cy="15.022" r="3.919"/>
	<path fill="#020202" d="M13.569,41.355L9.422,30.188l4.339-10.623l7.449,3.629c1.815,0.885,3.693,0.739,4.192-0.326l0.375-0.803
		c0.213-0.452,0.139-0.998-0.152-1.544c1.147,0.151,2.11-0.147,2.444-0.864l0.377-0.803c0.499-1.064-0.568-2.645-2.384-3.529
		L12.5,8.638c-2.347-0.96-4.89-0.111-5.681,1.897c0,0-6.531,14.611-6.735,16.353v25.598C0.031,52.717,0,52.957,0,53.207v2.336
		c0,1.549,1.079,2.805,2.409,2.805c1.331,0,2.41-1.255,2.41-2.805v-1.604v-0.732V36.521c0,0,1.287-0.81,1.992,0.442l2.256,6.077
		L5.539,55.335c-0.327,1.515,0.463,2.97,1.765,3.25c1.301,0.28,2.619-0.72,2.946-2.235l3.531-12.304
		c0.076-0.356,0.089-0.709,0.05-1.044C13.894,42.475,13.815,41.902,13.569,41.355z"/>
	<path fill="#020202" d="M50.156,22.288c-0.819-1.049-2.472-1.128-3.693-0.175l-2.8,2.257l1.081-2.963l3.206-1.437
		c0.726-0.324,1.049-1.174,0.724-1.898c-0.323-0.724-1.174-1.048-1.898-0.724l-5.325,2.386c-0.724,0.324-1.049,1.174-0.724,1.899
		c0.325,0.724,1.174,1.048,1.898,0.724l0.215-0.096l-1.402,3.843l-5.934-7.417c-0.056-0.07-0.113-0.137-0.171-0.204l0.001-0.001
		c-2.764-3.449-4.838-1.051-4.838-1.051l-7.813,11.814l0,0c0,0-0.979,1.078-1.598,2.416l-0.019,0.029l0.01-0.009
		c-0.508,1.108-0.766,2.391-0.01,3.386c0.679,0.894,2.837,2.307,5.162,3.668c0.169,0.127,0.352,0.243,0.553,0.339l7.807,4.415
		l-7.961,4.688c-1.28,0.875-1.708,2.473-0.958,3.572c0.751,1.099,2.396,1.281,3.674,0.407l11.032-6.494
		c0.289-0.198,0.533-0.433,0.73-0.69c0.156-0.161,0.29-0.345,0.389-0.554c0.154-0.32,0.217-0.663,0.203-1.006
		c0.021-0.467-0.095-0.927-0.365-1.322c-0.159-0.234-0.362-0.424-0.591-0.573c-0.215-0.188-0.46-0.353-0.734-0.485l-2.013-1.138
		l2.965-8.12c0.673,0.037,1.401-0.18,2.018-0.661l6.447-5.198C50.646,24.96,50.975,23.337,50.156,22.288z M36.673,39.145l-6.897-3.9
		l2.976-4.686l2.746-4.166l2.855,3.57c0.263,0.337,0.555,0.626,0.859,0.87c0.024,0.035,0.046,0.069,0.071,0.103
		c0.084,0.108,0.179,0.204,0.281,0.292L36.673,39.145z"/>
	<path fill="#020202" d="M29.014,41.761c-1.765-1.542-8.315-4.327-8.315-4.327c-3.062-0.477-1.428,1.491-1.007,1.783
		c1.966,1.359,8.886,3.524,8.886,3.524C29.761,42.822,29.215,41.938,29.014,41.761z"/>
	<path fill="#020202" d="M39.309,49.627l3.473-2.068c0.594-0.354,0.837-1.039,0.544-1.529c-0.291-0.491-1.01-0.603-1.604-0.248
		L22.831,57.04c-0.594,0.353-0.838,1.038-0.546,1.528c0.293,0.491,1.011,0.602,1.604,0.248l13.644-8.13l4.523,7.59
		c0.163,0.272,0.692,0.257,1.183-0.035c0.491-0.293,0.756-0.75,0.594-1.023L39.309,49.627z"/>
</g>
</svg>
